# xmcd CD database file
#
# Track frame offsets:
#	150
#	16942
#	61927
#
# Disc length: 1047 seconds
#
# Revision: 0
# Processed by: cddbd v1.5.1PL2 Copyright (c) Steve Scherf et al.
# Submitted via: CDex 1.51
#
DISCID=1a041503
DTITLE=上野洋子 - TVアニメーション「PIANO」エンディングテーマ ココロの音
DYEAR=2003
DGENRE=Anime
TTITLE0=ココロの音
TTITLE1=Sound Drama 「Endless Friend〜いつまでも〜」
TTITLE2=ココロの音 (Off Vocal Version)
EXTD=YEAR: 2003
EXTT0=
EXTT1=
EXTT2=
PLAYORDER=
